<svg data-v-423bf9ae="" xmlns="http://www.w3.org/2000/svg" viewBox="0 0 624 90" class="iconLeft"><!----><!----><!----><g data-v-423bf9ae="" id="001c22c3-9829-463a-aadd-6ec5641c007d" fill="#FFFFFF" transform="matrix(4.5627377749464895,0,0,4.5627377749464895,87.91484263406204,0.581747524290428)"><path d="M1.79 13.55L1.79 3.75L5.57 3.75L5.57 3.75Q7.10 3.75 8.28 4.38L8.28 4.38L8.28 4.38Q9.46 5.01 10.12 6.12L10.12 6.12L10.12 6.12Q10.77 7.24 10.77 8.65L10.77 8.65L10.77 8.65Q10.77 10.07 10.12 11.18L10.12 11.18L10.12 11.18Q9.46 12.29 8.28 12.92L8.28 12.92L8.28 12.92Q7.10 13.55 5.57 13.55L5.57 13.55L1.79 13.55ZM2.27 13.12L5.54 13.12L5.54 13.12Q6.97 13.12 8.04 12.54L8.04 12.54L8.04 12.54Q9.11 11.97 9.70 10.96L9.70 10.96L9.70 10.96Q10.29 9.94 10.29 8.65L10.29 8.65L10.29 8.65Q10.29 7.36 9.70 6.35L9.70 6.35L9.70 6.35Q9.11 5.33 8.04 4.76L8.04 4.76L8.04 4.76Q6.97 4.19 5.54 4.19L5.54 4.19L2.27 4.19L2.27 13.12ZM15.86 13.59L15.86 13.59Q14.85 13.59 14.04 13.13L14.04 13.13L14.04 13.13Q13.22 12.66 12.75 11.82L12.75 11.82L12.75 11.82Q12.29 10.98 12.29 9.91L12.29 9.91L12.29 9.91Q12.29 8.85 12.75 8.01L12.75 8.01L12.75 8.01Q13.22 7.17 14.04 6.70L14.04 6.70L14.04 6.70Q14.85 6.23 15.86 6.23L15.86 6.23L15.86 6.23Q16.88 6.23 17.70 6.70L17.70 6.70L17.70 6.70Q18.51 7.17 18.97 8.01L18.97 8.01L18.97 8.01Q19.43 8.85 19.43 9.91L19.43 9.91L19.43 9.91Q19.43 10.98 18.97 11.82L18.97 11.82L18.97 11.82Q18.51 12.66 17.70 13.13L17.70 13.13L17.70 13.13Q16.88 13.59 15.86 13.59L15.86 13.59ZM15.86 13.17L15.86 13.17Q16.74 13.17 17.45 12.76L17.45 12.76L17.45 12.76Q18.16 12.35 18.56 11.61L18.56 11.61L18.56 11.61Q18.97 10.86 18.97 9.91L18.97 9.91L18.97 9.91Q18.97 8.96 18.56 8.22L18.56 8.22L18.56 8.22Q18.16 7.49 17.45 7.08L17.45 7.08L17.45 7.08Q16.74 6.66 15.86 6.66L15.86 6.66L15.86 6.66Q14.98 6.66 14.27 7.08L14.27 7.08L14.27 7.08Q13.57 7.49 13.16 8.22L13.16 8.22L13.16 8.22Q12.75 8.96 12.75 9.91L12.75 9.91L12.75 9.91Q12.75 10.86 13.16 11.61L13.16 11.61L13.16 11.61Q13.57 12.35 14.27 12.76L14.27 12.76L14.27 12.76Q14.98 13.17 15.86 13.17L15.86 13.17ZM30.38 6.29L30.87 6.29L27.06 14.64L27.06 14.64Q26.66 15.55 26.14 15.93L26.14 15.93L26.14 15.93Q25.62 16.31 24.92 16.31L24.92 16.31L24.92 16.31Q24.43 16.31 24.01 16.15L24.01 16.15L24.01 16.15Q23.59 15.99 23.30 15.67L23.30 15.67L23.56 15.30L23.56 15.30Q23.86 15.62 24.18 15.76L24.18 15.76L24.18 15.76Q24.50 15.90 24.92 15.90L24.92 15.90L24.92 15.90Q25.47 15.90 25.87 15.60L25.87 15.60L25.87 15.60Q26.26 15.29 26.61 14.53L26.61 14.53L27.08 13.54L23.77 6.29L24.28 6.29L27.33 13.02L30.38 6.29ZM35.24 13.59L35.24 13.59Q34.23 13.59 33.41 13.13L33.41 13.13L33.41 13.13Q32.59 12.66 32.13 11.82L32.13 11.82L32.13 11.82Q31.67 10.98 31.67 9.91L31.67 9.91L31.67 9.91Q31.67 8.85 32.13 8.01L32.13 8.01L32.13 8.01Q32.59 7.17 33.41 6.70L33.41 6.70L33.41 6.70Q34.23 6.23 35.24 6.23L35.24 6.23L35.24 6.23Q36.26 6.23 37.07 6.70L37.07 6.70L37.07 6.70Q37.88 7.17 38.35 8.01L38.35 8.01L38.35 8.01Q38.81 8.85 38.81 9.91L38.81 9.91L38.81 9.91Q38.81 10.98 38.35 11.82L38.35 11.82L38.35 11.82Q37.88 12.66 37.07 13.13L37.07 13.13L37.07 13.13Q36.26 13.59 35.24 13.59L35.24 13.59ZM35.24 13.17L35.24 13.17Q36.12 13.17 36.83 12.76L36.83 12.76L36.83 12.76Q37.53 12.35 37.94 11.61L37.94 11.61L37.94 11.61Q38.35 10.86 38.35 9.91L38.35 9.91L38.35 9.91Q38.35 8.96 37.94 8.22L37.94 8.22L37.94 8.22Q37.53 7.49 36.83 7.08L36.83 7.08L36.83 7.08Q36.12 6.66 35.24 6.66L35.24 6.66L35.24 6.66Q34.36 6.66 33.65 7.08L33.65 7.08L33.65 7.08Q32.94 7.49 32.54 8.22L32.54 8.22L32.54 8.22Q32.13 8.96 32.13 9.91L32.13 9.91L32.13 9.91Q32.13 10.86 32.54 11.61L32.54 11.61L32.54 11.61Q32.94 12.35 33.65 12.76L33.65 12.76L33.65 12.76Q34.36 13.17 35.24 13.17L35.24 13.17ZM46.84 6.29L47.31 6.29L47.31 13.55L46.86 13.55L46.86 11.79L46.86 11.79Q46.52 12.64 45.78 13.12L45.78 13.12L45.78 13.12Q45.04 13.59 44.02 13.59L44.02 13.59L44.02 13.59Q42.60 13.59 41.80 12.81L41.80 12.81L41.80 12.81Q41.01 12.03 41.01 10.56L41.01 10.56L41.01 6.29L41.47 6.29L41.47 10.53L41.47 10.53Q41.47 11.82 42.13 12.49L42.13 12.49L42.13 12.49Q42.80 13.17 44.03 13.17L44.03 13.17L44.03 13.17Q45.33 13.17 46.09 12.37L46.09 12.37L46.09 12.37Q46.84 11.56 46.84 10.21L46.84 10.21L46.84 6.29ZM59.95 9.86L59.95 9.98L53.58 9.98L53.58 9.98Q53.59 10.91 54.01 11.63L54.01 11.63L54.01 11.63Q54.43 12.36 55.17 12.77L55.17 12.77L55.17 12.77Q55.90 13.17 56.81 13.17L56.81 13.17L56.81 13.17Q57.55 13.17 58.18 12.90L58.18 12.90L58.18 12.90Q58.81 12.63 59.22 12.10L59.22 12.10L59.51 12.40L59.51 12.40Q59.02 12.98 58.32 13.29L58.32 13.29L58.32 13.29Q57.62 13.59 56.81 13.59L56.81 13.59L56.81 13.59Q55.75 13.59 54.91 13.13L54.91 13.13L54.91 13.13Q54.08 12.66 53.61 11.82L53.61 11.82L53.61 11.82Q53.13 10.98 53.13 9.91L53.13 9.91L53.13 9.91Q53.13 8.85 53.57 8.01L53.57 8.01L53.57 8.01Q54.01 7.17 54.80 6.70L54.80 6.70L54.80 6.70Q55.58 6.23 56.55 6.23L56.55 6.23L56.55 6.23Q57.50 6.23 58.27 6.69L58.27 6.69L58.27 6.69Q59.05 7.15 59.50 7.98L59.50 7.98L59.50 7.98Q59.95 8.81 59.95 9.86L59.95 9.86ZM56.55 6.65L56.55 6.65Q55.73 6.65 55.08 7.03L55.08 7.03L55.08 7.03Q54.42 7.41 54.03 8.08L54.03 8.08L54.03 8.08Q53.63 8.76 53.59 9.60L53.59 9.60L59.51 9.60L59.51 9.60Q59.46 8.76 59.06 8.08L59.06 8.08L59.06 8.08Q58.66 7.41 58.01 7.03L58.01 7.03L58.01 7.03Q57.36 6.65 56.55 6.65L56.55 6.65ZM67.35 6.29L67.84 6.29L64.53 13.55L64.06 13.55L60.75 6.29L61.25 6.29L64.30 13.03L67.35 6.29ZM75.46 9.86L75.46 9.98L69.09 9.98L69.09 9.98Q69.10 10.91 69.52 11.63L69.52 11.63L69.52 11.63Q69.94 12.36 70.68 12.77L70.68 12.77L70.68 12.77Q71.41 13.17 72.32 13.17L72.32 13.17L72.32 13.17Q73.07 13.17 73.70 12.90L73.70 12.90L73.70 12.90Q74.33 12.63 74.73 12.10L74.73 12.10L75.03 12.40L75.03 12.40Q74.54 12.98 73.84 13.29L73.84 13.29L73.84 13.29Q73.14 13.59 72.32 13.59L72.32 13.59L72.32 13.59Q71.26 13.59 70.43 13.13L70.43 13.13L70.43 13.13Q69.59 12.66 69.12 11.82L69.12 11.82L69.12 11.82Q68.64 10.98 68.64 9.91L68.64 9.91L68.64 9.91Q68.64 8.85 69.08 8.01L69.08 8.01L69.08 8.01Q69.52 7.17 70.31 6.70L70.31 6.70L70.31 6.70Q71.09 6.23 72.06 6.23L72.06 6.23L72.06 6.23Q73.01 6.23 73.79 6.69L73.79 6.69L73.79 6.69Q74.56 7.15 75.01 7.98L75.01 7.98L75.01 7.98Q75.46 8.81 75.46 9.86L75.46 9.86ZM72.06 6.65L72.06 6.65Q71.25 6.65 70.59 7.03L70.59 7.03L70.59 7.03Q69.93 7.41 69.54 8.08L69.54 8.08L69.54 8.08Q69.15 8.76 69.10 9.60L69.10 9.60L75.03 9.60L75.03 9.60Q74.97 8.76 74.57 8.08L74.57 8.08L74.57 8.08Q74.17 7.41 73.52 7.03L73.52 7.03L73.52 7.03Q72.87 6.65 72.06 6.65L72.06 6.65ZM81.17 6.23L81.17 6.23Q82.53 6.23 83.31 7.02L83.31 7.02L83.31 7.02Q84.10 7.81 84.10 9.28L84.10 9.28L84.10 13.55L83.64 13.55L83.64 9.31L83.64 9.31Q83.64 8.02 82.98 7.34L82.98 7.34L82.98 7.34Q82.33 6.66 81.13 6.66L81.13 6.66L81.13 6.66Q79.77 6.66 78.99 7.47L78.99 7.47L78.99 7.47Q78.20 8.27 78.20 9.63L78.20 9.63L78.20 13.55L77.74 13.55L77.74 6.29L78.19 6.29L78.19 8.06L78.19 8.06Q78.54 7.21 79.32 6.72L79.32 6.72L79.32 6.72Q80.09 6.23 81.17 6.23L81.17 6.23ZM90.66 13.55L90.66 3.16L91.13 3.16L91.13 13.55L90.66 13.55ZM96.98 13.59L96.98 13.59Q95.97 13.59 95.15 13.13L95.15 13.13L95.15 13.13Q94.33 12.66 93.87 11.82L93.87 11.82L93.87 11.82Q93.41 10.98 93.41 9.91L93.41 9.91L93.41 9.91Q93.41 8.85 93.87 8.01L93.87 8.01L93.87 8.01Q94.33 7.17 95.15 6.70L95.15 6.70L95.15 6.70Q95.97 6.23 96.98 6.23L96.98 6.23L96.98 6.23Q98 6.23 98.81 6.70L98.81 6.70L98.81 6.70Q99.62 7.17 100.09 8.01L100.09 8.01L100.09 8.01Q100.55 8.85 100.55 9.91L100.55 9.91L100.55 9.91Q100.55 10.98 100.09 11.82L100.09 11.82L100.09 11.82Q99.62 12.66 98.81 13.13L98.81 13.13L98.81 13.13Q98 13.59 96.98 13.59L96.98 13.59ZM96.98 13.17L96.98 13.17Q97.86 13.17 98.57 12.76L98.57 12.76L98.57 12.76Q99.27 12.35 99.68 11.61L99.68 11.61L99.68 11.61Q100.09 10.86 100.09 9.91L100.09 9.91L100.09 9.91Q100.09 8.96 99.68 8.22L99.68 8.22L99.68 8.22Q99.27 7.49 98.57 7.08L98.57 7.08L98.57 7.08Q97.86 6.66 96.98 6.66L96.98 6.66L96.98 6.66Q96.10 6.66 95.39 7.08L95.39 7.08L95.39 7.08Q94.68 7.49 94.28 8.22L94.28 8.22L94.28 8.22Q93.87 8.96 93.87 9.91L93.87 9.91L93.87 9.91Q93.87 10.86 94.28 11.61L94.28 11.61L94.28 11.61Q94.68 12.35 95.39 12.76L95.39 12.76L95.39 12.76Q96.10 13.17 96.98 13.17L96.98 13.17ZM108.78 6.29L109.23 6.29L109.23 12.85L109.23 12.85Q109.23 14.62 108.37 15.46L108.37 15.46L108.37 15.46Q107.52 16.31 105.80 16.31L105.80 16.31L105.80 16.31Q104.79 16.31 103.92 16.00L103.92 16.00L103.92 16.00Q103.05 15.69 102.54 15.13L102.54 15.13L102.80 14.78L102.80 14.78Q103.36 15.32 104.13 15.60L104.13 15.60L104.13 15.60Q104.89 15.89 105.78 15.89L105.78 15.89L105.78 15.89Q107.31 15.89 108.04 15.17L108.04 15.17L108.04 15.17Q108.77 14.45 108.77 12.91L108.77 12.91L108.77 11.37L108.77 11.37Q108.36 12.26 107.52 12.78L107.52 12.78L107.52 12.78Q106.68 13.30 105.60 13.30L105.60 13.30L105.60 13.30Q104.58 13.30 103.76 12.84L103.76 12.84L103.76 12.84Q102.94 12.39 102.47 11.58L102.47 11.58L102.47 11.58Q102.00 10.78 102.00 9.76L102.00 9.76L102.00 9.76Q102.00 8.74 102.47 7.93L102.47 7.93L102.47 7.93Q102.94 7.13 103.76 6.68L103.76 6.68L103.76 6.68Q104.58 6.23 105.60 6.23L105.60 6.23L105.60 6.23Q106.68 6.23 107.53 6.75L107.53 6.75L107.53 6.75Q108.37 7.27 108.78 8.18L108.78 8.18L108.78 6.29ZM105.62 12.88L105.62 12.88Q106.51 12.88 107.23 12.48L107.23 12.48L107.23 12.48Q107.95 12.08 108.37 11.37L108.37 11.37L108.37 11.37Q108.78 10.65 108.78 9.76L108.78 9.76L108.78 9.76Q108.78 8.86 108.37 8.15L108.37 8.15L108.37 8.15Q107.95 7.45 107.23 7.06L107.23 7.06L107.23 7.06Q106.51 6.66 105.62 6.66L105.62 6.66L105.62 6.66Q104.72 6.66 104.00 7.06L104.00 7.06L104.00 7.06Q103.28 7.45 102.87 8.15L102.87 8.15L102.87 8.15Q102.47 8.86 102.47 9.76L102.47 9.76L102.47 9.76Q102.47 10.67 102.87 11.38L102.87 11.38L102.87 11.38Q103.28 12.08 104.00 12.48L104.00 12.48L104.00 12.48Q104.72 12.88 105.62 12.88L105.62 12.88ZM114.23 10.84L114.23 10.84Q114.23 10.25 114.42 9.80L114.42 9.80L114.42 9.80Q114.62 9.35 114.89 9.04L114.89 9.04L114.89 9.04Q115.16 8.74 115.63 8.33L115.63 8.33L115.63 8.33Q116.27 7.77 116.59 7.30L116.59 7.30L116.59 7.30Q116.91 6.83 116.91 6.10L116.91 6.10L116.91 6.10Q116.91 5.22 116.23 4.67L116.23 4.67L116.23 4.67Q115.54 4.12 114.31 4.12L114.31 4.12L114.31 4.12Q113.33 4.12 112.61 4.41L112.61 4.41L112.61 4.41Q111.89 4.70 111.37 5.29L111.37 5.29L111.03 5.01L111.03 5.01Q112.20 3.70 114.32 3.70L114.32 3.70L114.32 3.70Q115.72 3.70 116.56 4.35L116.56 4.35L116.56 4.35Q117.39 5.00 117.39 6.06L117.39 6.06L117.39 6.06Q117.39 6.65 117.20 7.10L117.20 7.10L117.20 7.10Q117.01 7.55 116.74 7.86L116.74 7.86L116.74 7.86Q116.47 8.18 116.00 8.58L116.00 8.58L116.00 8.58Q115.57 8.96 115.31 9.24L115.31 9.24L115.31 9.24Q115.05 9.52 114.88 9.92L114.88 9.92L114.88 9.92Q114.70 10.32 114.70 10.84L114.70 10.84L114.23 10.84ZM114.46 13.59L114.46 13.59Q114.28 13.59 114.15 13.46L114.15 13.46L114.15 13.46Q114.02 13.33 114.02 13.15L114.02 13.15L114.02 13.15Q114.02 12.95 114.15 12.82L114.15 12.82L114.15 12.82Q114.28 12.68 114.46 12.68L114.46 12.68L114.46 12.68Q114.66 12.68 114.79 12.82L114.79 12.82L114.79 12.82Q114.93 12.95 114.93 13.15L114.93 13.15L114.93 13.15Q114.93 13.33 114.79 13.46L114.79 13.46L114.79 13.46Q114.66 13.59 114.46 13.59L114.46 13.59Z"></path></g><!----><g data-v-423bf9ae="" id="2bd900e7-b670-4652-8135-b7866e83c915" transform="matrix(3.2142857142857144,0,0,3.2142857142857144,-15.112499168940957,-6.428571428571431)" stroke="none" fill="#D44553"><g data-name="Layer 2"><path d="M27.67 11a1 1 0 0 0-.67.27V9a3 3 0 0 0-3-3h-1V5a3 3 0 0 0-3-3h-8a3 3 0 0 0-3 3v1H8a3 3 0 0 0-3 3v14a3 3 0 0 0 3 3h1v1a3 3 0 0 0 3 3h8a3 3 0 0 0 3-3v-1h1a3 3 0 0 0 3-3v-8.27a1 1 0 0 0 .67.27 1 1 0 0 0 1-1v-2a1 1 0 0 0-1-1zM11 5a1 1 0 0 1 1-1h8a1 1 0 0 1 1 1v1H11zm10 22a1 1 0 0 1-1 1h-8a1 1 0 0 1-1-1v-1h10zm4-4a1 1 0 0 1-1 1H8a1 1 0 0 1-1-1V9a1 1 0 0 1 1-1h16a1 1 0 0 1 1 1z"></path><path d="M21.5 16H20l-.66-4.16a1 1 0 0 0-1.87-.31l-2 3.88-.86-2.71a1 1 0 0 0-1.84-.16L11.48 15h-1a1 1 0 0 0 0 2h1.58a1 1 0 0 0 .88-.53l.46-.88.86 2.71a1 1 0 0 0 .86.69h.09a1 1 0 0 0 .88-.53l1.75-3.33.32 2a1 1 0 0 0 1 .84h2.34a1 1 0 0 0 0-2z"></path></g></g><!----></svg>