<svg xmlns="http://www.w3.org/2000/svg" width="76.08" height="90" viewBox="0 0 76.08 90"><defs><style>.a{fill:#d44654;}</style></defs><title>Asset 1</title><path class="a" d="M72.87,28.93a3.23,3.23,0,0,0-2.16.87V22.5a9.63,9.63,0,0,0-9.64-9.64H57.86V9.64A9.65,9.65,0,0,0,48.21,0H22.5a9.64,9.64,0,0,0-9.64,9.64v3.22H9.64A9.64,9.64,0,0,0,0,22.5v45a9.64,9.64,0,0,0,9.64,9.64h3.22v3.22A9.64,9.64,0,0,0,22.5,90H48.21a9.65,9.65,0,0,0,9.65-9.64V77.14h3.21a9.63,9.63,0,0,0,9.64-9.64V40.92a3.28,3.28,0,0,0,2.16.87,3.22,3.22,0,0,0,3.21-3.22V32.14A3.21,3.21,0,0,0,72.87,28.93ZM19.29,9.64A3.21,3.21,0,0,1,22.5,6.43H48.21a3.22,3.22,0,0,1,3.22,3.21v3.22H19.29ZM51.43,80.36a3.22,3.22,0,0,1-3.22,3.21H22.5a3.21,3.21,0,0,1-3.21-3.21V77.14H51.43ZM64.29,67.5a3.21,3.21,0,0,1-3.22,3.21H9.64A3.21,3.21,0,0,1,6.43,67.5v-45a3.21,3.21,0,0,1,3.21-3.21H61.07a3.21,3.21,0,0,1,3.22,3.21Z"/><path class="a" d="M53,45H48.21L46.09,31.63a3.22,3.22,0,0,0-6-1L33.65,43.1l-2.76-8.71A3.22,3.22,0,0,0,25,33.88l-4.14,7.91H17.61a3.21,3.21,0,1,0,0,6.42h5.08a3.2,3.2,0,0,0,2.83-1.7L27,43.68l2.76,8.71a3.23,3.23,0,0,0,2.77,2.22h.29a3.23,3.23,0,0,0,2.83-1.7L41.27,42.2l1,6.43a3.21,3.21,0,0,0,3.21,2.7H53a3.22,3.22,0,0,0,0-6.43Z"/></svg>